<svg width="800" height="800" viewBox="0 0 800 800" fill="none" xmlns="http://www.w3.org/2000/svg">
<g clip-path="url(#clip0_1311_152)">
<rect x="0.5" y="133.5" width="799" height="533" rx="55.5" fill="#D9D9D9"/>
<rect x="0.5" y="133.5" width="799" height="533" rx="55.5" fill="#010214"/>
<rect x="0.5" y="133.5" width="799" height="533" rx="55.5" stroke="#010214"/>
<rect x="98" y="562" width="605" height="238" rx="17.3946" fill="url(#paint0_linear_1311_152)"/>
<rect x="100" y="564" width="601" height="234" rx="15.3946" stroke="url(#paint1_linear_1311_152)" stroke-opacity="0.2" stroke-width="4"/>
<rect x="608.471" y="579.395" width="77.0919" height="59.0919" rx="8.69729" fill="#C6FA85" fill-opacity="0.1"/>
<path d="M631.759 600.544L625.32 611.331H631.759V600.544ZM631.308 598.028H634.507V611.331H637.228V613.573H634.507V618.441H631.759V613.573H623.105V610.962L631.308 598.028ZM647.003 597.728C649.182 597.728 650.827 598.616 651.939 600.394C653.06 602.171 653.621 604.801 653.621 608.282C653.621 611.764 653.06 614.394 651.939 616.171C650.827 617.948 649.182 618.837 647.003 618.837C644.825 618.837 643.18 617.948 642.068 616.171C640.956 614.394 640.4 611.764 640.4 608.282C640.4 604.801 640.956 602.171 642.068 600.394C643.18 598.616 644.825 597.728 647.003 597.728ZM647.003 616.65C648.298 616.65 649.259 615.961 649.888 614.585C650.526 613.209 650.845 611.108 650.845 608.282C650.845 606.778 650.754 605.42 650.572 604.208L644.064 614.394C644.748 615.898 645.727 616.65 647.003 616.65ZM647.003 599.915C645.718 599.915 644.757 600.603 644.119 601.98C643.49 603.356 643.175 605.457 643.175 608.282C643.175 609.567 643.262 610.771 643.435 611.892L649.806 601.733C649.113 600.521 648.179 599.915 647.003 599.915ZM664.968 614.079C664.968 614.79 665.205 615.387 665.679 615.87C666.162 616.353 666.759 616.595 667.47 616.595C668.172 616.595 668.764 616.353 669.248 615.87C669.74 615.378 669.986 614.781 669.986 614.079C669.986 613.377 669.74 612.78 669.248 612.288C668.755 611.796 668.163 611.55 667.47 611.55C666.759 611.55 666.162 611.791 665.679 612.275C665.205 612.758 664.968 613.359 664.968 614.079ZM663.123 614.079C663.123 612.849 663.542 611.814 664.38 610.976C665.219 610.128 666.249 609.704 667.47 609.704C668.054 609.704 668.605 609.814 669.125 610.032C669.653 610.251 670.127 610.57 670.546 610.989C670.966 611.418 671.289 611.896 671.517 612.425C671.745 612.954 671.859 613.505 671.859 614.079C671.859 615.291 671.435 616.321 670.587 617.169C669.74 618.017 668.701 618.441 667.47 618.441C666.231 618.441 665.196 618.026 664.367 617.196C663.537 616.358 663.123 615.319 663.123 614.079ZM656.587 612.425L655.986 610.88L671.23 604.782L671.914 606.327L656.587 612.425ZM657.75 603.237C657.75 603.957 657.986 604.559 658.46 605.042C658.944 605.516 659.545 605.753 660.265 605.753C660.967 605.753 661.564 605.511 662.056 605.028C662.548 604.536 662.794 603.939 662.794 603.237C662.794 602.536 662.548 601.943 662.056 601.46C661.564 600.968 660.967 600.722 660.265 600.722C659.563 600.722 658.966 600.963 658.474 601.446C657.991 601.929 657.75 602.526 657.75 603.237ZM655.904 603.237C655.904 602.007 656.323 600.972 657.162 600.134C658 599.286 659.035 598.862 660.265 598.862C660.848 598.862 661.404 598.972 661.933 599.191C662.471 599.409 662.945 599.724 663.355 600.134C663.765 600.544 664.08 601.018 664.298 601.556C664.526 602.084 664.64 602.645 664.64 603.237C664.64 604.459 664.216 605.493 663.369 606.341C662.521 607.179 661.486 607.599 660.265 607.599C659.035 607.599 658 607.179 657.162 606.341C656.323 605.502 655.904 604.468 655.904 603.237Z" fill="#C6FA85"/>
<rect x="115" y="579" width="77.0919" height="59.0919" rx="8.69729" fill="#C6FA85" fill-opacity="0.1"/>
<path d="M138.288 600.149L131.849 610.937H138.288V600.149ZM137.837 597.634H141.036V610.937H143.757V613.179H141.036V618.046H138.288V613.179H129.634V610.567L137.837 597.634ZM153.532 597.333C155.711 597.333 157.356 598.222 158.468 599.999C159.589 601.776 160.149 604.406 160.149 607.888C160.149 611.369 159.589 613.999 158.468 615.776C157.356 617.554 155.711 618.442 153.532 618.442C151.354 618.442 149.709 617.554 148.597 615.776C147.485 613.999 146.929 611.369 146.929 607.888C146.929 604.406 147.485 601.776 148.597 599.999C149.709 598.222 151.354 597.333 153.532 597.333ZM153.532 616.255C154.826 616.255 155.788 615.567 156.417 614.19C157.055 612.814 157.374 610.713 157.374 607.888C157.374 606.384 157.283 605.026 157.101 603.814L150.593 613.999C151.276 615.503 152.256 616.255 153.532 616.255ZM153.532 599.521C152.247 599.521 151.285 600.209 150.647 601.585C150.019 602.961 149.704 605.062 149.704 607.888C149.704 609.173 149.791 610.376 149.964 611.497L156.335 601.339C155.642 600.127 154.708 599.521 153.532 599.521ZM171.497 613.685C171.497 614.396 171.734 614.993 172.208 615.476C172.691 615.959 173.288 616.2 173.999 616.2C174.701 616.2 175.293 615.959 175.776 615.476C176.269 614.983 176.515 614.386 176.515 613.685C176.515 612.983 176.269 612.386 175.776 611.894C175.284 611.401 174.692 611.155 173.999 611.155C173.288 611.155 172.691 611.397 172.208 611.88C171.734 612.363 171.497 612.965 171.497 613.685ZM169.651 613.685C169.651 612.454 170.071 611.42 170.909 610.581C171.748 609.733 172.778 609.31 173.999 609.31C174.582 609.31 175.134 609.419 175.653 609.638C176.182 609.856 176.656 610.175 177.075 610.595C177.494 611.023 177.818 611.502 178.046 612.03C178.274 612.559 178.388 613.11 178.388 613.685C178.388 614.897 177.964 615.927 177.116 616.774C176.269 617.622 175.229 618.046 173.999 618.046C172.759 618.046 171.725 617.631 170.896 616.802C170.066 615.963 169.651 614.924 169.651 613.685ZM163.116 612.03L162.515 610.485L177.759 604.388L178.442 605.933L163.116 612.03ZM164.278 602.843C164.278 603.563 164.515 604.164 164.989 604.647C165.472 605.121 166.074 605.358 166.794 605.358C167.496 605.358 168.093 605.117 168.585 604.634C169.077 604.142 169.323 603.545 169.323 602.843C169.323 602.141 169.077 601.549 168.585 601.065C168.093 600.573 167.496 600.327 166.794 600.327C166.092 600.327 165.495 600.569 165.003 601.052C164.52 601.535 164.278 602.132 164.278 602.843ZM162.433 602.843C162.433 601.612 162.852 600.578 163.69 599.739C164.529 598.892 165.563 598.468 166.794 598.468C167.377 598.468 167.933 598.577 168.462 598.796C169 599.015 169.474 599.329 169.884 599.739C170.294 600.149 170.608 600.623 170.827 601.161C171.055 601.69 171.169 602.25 171.169 602.843C171.169 604.064 170.745 605.099 169.897 605.946C169.05 606.785 168.015 607.204 166.794 607.204C165.563 607.204 164.529 606.785 163.69 605.946C162.852 605.108 162.433 604.073 162.433 602.843Z" fill="#C6FA85"/>
<rect x="115.395" y="723" width="77.0919" height="59.0919" rx="8.69729" fill="#C6FA85" fill-opacity="0.1"/>
<path d="M138.683 744.149L132.243 754.936H138.683V744.149ZM138.231 741.634H141.431V754.936H144.151V757.179H141.431V762.046H138.683V757.179H130.028V754.567L138.231 741.634ZM153.927 741.333C156.105 741.333 157.75 742.222 158.862 743.999C159.983 745.776 160.544 748.406 160.544 751.888C160.544 755.369 159.983 757.999 158.862 759.776C157.75 761.554 156.105 762.442 153.927 762.442C151.748 762.442 150.103 761.554 148.991 759.776C147.879 757.999 147.323 755.369 147.323 751.888C147.323 748.406 147.879 745.776 148.991 743.999C150.103 742.222 151.748 741.333 153.927 741.333ZM153.927 760.255C155.221 760.255 156.183 759.567 156.812 758.19C157.45 756.814 157.769 754.713 157.769 751.888C157.769 750.384 157.677 749.026 157.495 747.813L150.987 757.999C151.671 759.503 152.651 760.255 153.927 760.255ZM153.927 743.52C152.642 743.52 151.68 744.209 151.042 745.585C150.413 746.961 150.099 749.062 150.099 751.888C150.099 753.173 150.185 754.376 150.358 755.497L156.729 745.339C156.037 744.127 155.103 743.52 153.927 743.52ZM171.892 757.685C171.892 758.395 172.129 758.992 172.603 759.476C173.086 759.959 173.683 760.2 174.394 760.2C175.095 760.2 175.688 759.959 176.171 759.476C176.663 758.983 176.909 758.386 176.909 757.685C176.909 756.983 176.663 756.386 176.171 755.893C175.679 755.401 175.086 755.155 174.394 755.155C173.683 755.155 173.086 755.397 172.603 755.88C172.129 756.363 171.892 756.964 171.892 757.685ZM170.046 757.685C170.046 756.454 170.465 755.42 171.304 754.581C172.142 753.733 173.172 753.31 174.394 753.31C174.977 753.31 175.528 753.419 176.048 753.638C176.576 753.856 177.05 754.175 177.47 754.595C177.889 755.023 178.213 755.502 178.44 756.03C178.668 756.559 178.782 757.11 178.782 757.685C178.782 758.897 178.358 759.927 177.511 760.774C176.663 761.622 175.624 762.046 174.394 762.046C173.154 762.046 172.119 761.631 171.29 760.802C170.461 759.963 170.046 758.924 170.046 757.685ZM163.511 756.03L162.909 754.485L178.153 748.388L178.837 749.933L163.511 756.03ZM164.673 746.843C164.673 747.563 164.91 748.164 165.384 748.647C165.867 749.121 166.468 749.358 167.188 749.358C167.89 749.358 168.487 749.117 168.979 748.634C169.472 748.142 169.718 747.545 169.718 746.843C169.718 746.141 169.472 745.548 168.979 745.065C168.487 744.573 167.89 744.327 167.188 744.327C166.487 744.327 165.89 744.569 165.397 745.052C164.914 745.535 164.673 746.132 164.673 746.843ZM162.827 746.843C162.827 745.612 163.246 744.578 164.085 743.739C164.924 742.892 165.958 742.468 167.188 742.468C167.772 742.468 168.328 742.577 168.856 742.796C169.394 743.015 169.868 743.329 170.278 743.739C170.688 744.149 171.003 744.623 171.222 745.161C171.45 745.69 171.563 746.25 171.563 746.843C171.563 748.064 171.14 749.099 170.292 749.946C169.444 750.785 168.41 751.204 167.188 751.204C165.958 751.204 164.924 750.785 164.085 749.946C163.246 749.108 162.827 748.073 162.827 746.843Z" fill="#C6FA85"/>
<rect x="608.205" y="723" width="77.0919" height="59.0919" rx="8.69729" fill="#C6FA85" fill-opacity="0.1"/>
<path d="M631.493 744.149L625.053 754.936H631.493V744.149ZM631.042 741.634H634.241V754.936H636.961V757.179H634.241V762.046H631.493V757.179H622.838V754.567L631.042 741.634ZM646.737 741.333C648.915 741.333 650.56 742.222 651.672 743.999C652.793 745.776 653.354 748.406 653.354 751.888C653.354 755.369 652.793 757.999 651.672 759.776C650.56 761.554 648.915 762.442 646.737 762.442C644.558 762.442 642.913 761.554 641.801 759.776C640.689 757.999 640.133 755.369 640.133 751.888C640.133 748.406 640.689 745.776 641.801 743.999C642.913 742.222 644.558 741.333 646.737 741.333ZM646.737 760.255C648.031 760.255 648.993 759.567 649.622 758.19C650.26 756.814 650.579 754.713 650.579 751.888C650.579 750.384 650.487 749.026 650.305 747.813L643.797 757.999C644.481 759.503 645.461 760.255 646.737 760.255ZM646.737 743.52C645.452 743.52 644.49 744.209 643.852 745.585C643.223 746.961 642.909 749.062 642.909 751.888C642.909 753.173 642.995 754.376 643.168 755.497L649.54 745.339C648.847 744.127 647.913 743.52 646.737 743.52ZM664.702 757.685C664.702 758.395 664.939 758.992 665.413 759.476C665.896 759.959 666.493 760.2 667.204 760.2C667.905 760.2 668.498 759.959 668.981 759.476C669.473 758.983 669.719 758.386 669.719 757.685C669.719 756.983 669.473 756.386 668.981 755.893C668.489 755.401 667.896 755.155 667.204 755.155C666.493 755.155 665.896 755.397 665.413 755.88C664.939 756.363 664.702 756.964 664.702 757.685ZM662.856 757.685C662.856 756.454 663.275 755.42 664.114 754.581C664.952 753.733 665.982 753.31 667.204 753.31C667.787 753.31 668.338 753.419 668.858 753.638C669.387 753.856 669.861 754.175 670.28 754.595C670.699 755.023 671.023 755.502 671.25 756.03C671.478 756.559 671.592 757.11 671.592 757.685C671.592 758.897 671.168 759.927 670.321 760.774C669.473 761.622 668.434 762.046 667.204 762.046C665.964 762.046 664.93 761.631 664.1 760.802C663.271 759.963 662.856 758.924 662.856 757.685ZM656.321 756.03L655.719 754.485L670.963 748.388L671.647 749.933L656.321 756.03ZM657.483 746.843C657.483 747.563 657.72 748.164 658.194 748.647C658.677 749.121 659.278 749.358 659.999 749.358C660.7 749.358 661.297 749.117 661.79 748.634C662.282 748.142 662.528 747.545 662.528 746.843C662.528 746.141 662.282 745.548 661.79 745.065C661.297 744.573 660.7 744.327 659.999 744.327C659.297 744.327 658.7 744.569 658.208 745.052C657.724 745.535 657.483 746.132 657.483 746.843ZM655.637 746.843C655.637 745.612 656.056 744.578 656.895 743.739C657.734 742.892 658.768 742.468 659.999 742.468C660.582 742.468 661.138 742.577 661.667 742.796C662.204 743.015 662.678 743.329 663.088 743.739C663.499 744.149 663.813 744.623 664.032 745.161C664.26 745.69 664.374 746.25 664.374 746.843C664.374 748.064 663.95 749.099 663.102 749.946C662.254 750.785 661.22 751.204 659.999 751.204C658.768 751.204 657.734 750.785 656.895 749.946C656.056 749.108 655.637 748.073 655.637 746.843Z" fill="#C6FA85"/>
<rect x="98" width="605" height="238" rx="21.3004" fill="url(#paint2_linear_1311_152)"/>
<rect x="100" y="2" width="601" height="234" rx="19.3004" stroke="url(#paint3_linear_1311_152)" stroke-opacity="0.2" stroke-width="4"/>
<rect x="597.697" y="21.3004" width="82.9506" height="64.9506" rx="10.6502" fill="#858AFA" fill-opacity="0.1"/>
<path d="M623.915 45.3792L617.475 56.1664H623.915V45.3792ZM623.463 42.8636H626.663V56.1664H629.383V58.4085H626.663V63.2757H623.915V58.4085H615.26V55.7972L623.463 42.8636ZM639.159 42.5628C641.337 42.5628 642.982 43.4515 644.094 45.2289C645.215 47.0062 645.776 49.6358 645.776 53.1175C645.776 56.5993 645.215 59.2289 644.094 61.0062C642.982 62.7835 641.337 63.6722 639.159 63.6722C636.98 63.6722 635.335 62.7835 634.223 61.0062C633.111 59.2289 632.555 56.5993 632.555 53.1175C632.555 49.6358 633.111 47.0062 634.223 45.2289C635.335 43.4515 636.98 42.5628 639.159 42.5628ZM639.159 61.4847C640.453 61.4847 641.415 60.7966 642.043 59.4203C642.681 58.044 643 55.943 643 53.1175C643 51.6136 642.909 50.2555 642.727 49.0433L636.219 59.2289C636.903 60.7328 637.883 61.4847 639.159 61.4847ZM639.159 44.7503C637.874 44.7503 636.912 45.4385 636.274 46.8148C635.645 48.1911 635.331 50.292 635.331 53.1175C635.331 54.4027 635.417 55.6058 635.59 56.7269L641.961 46.5687C641.269 45.3565 640.334 44.7503 639.159 44.7503ZM657.124 58.9144C657.124 59.6253 657.361 60.2223 657.834 60.7054C658.318 61.1885 658.915 61.43 659.625 61.43C660.327 61.43 660.92 61.1885 661.403 60.7054C661.895 60.2132 662.141 59.6162 662.141 58.9144C662.141 58.2126 661.895 57.6156 661.403 57.1234C660.911 56.6312 660.318 56.3851 659.625 56.3851C658.915 56.3851 658.318 56.6266 657.834 57.1097C657.361 57.5928 657.124 58.1943 657.124 58.9144ZM655.278 58.9144C655.278 57.6839 655.697 56.6494 656.536 55.8109C657.374 54.9632 658.404 54.5394 659.625 54.5394C660.209 54.5394 660.76 54.6488 661.28 54.8675C661.808 55.0863 662.282 55.4053 662.702 55.8246C663.121 56.2529 663.444 56.7315 663.672 57.2601C663.9 57.7887 664.014 58.3402 664.014 58.9144C664.014 60.1266 663.59 61.1566 662.743 62.0042C661.895 62.8519 660.856 63.2757 659.625 63.2757C658.386 63.2757 657.351 62.861 656.522 62.0316C655.693 61.193 655.278 60.154 655.278 58.9144ZM648.743 57.2601L648.141 55.7152L663.385 49.6175L664.069 51.1624L648.743 57.2601ZM649.905 48.0726C649.905 48.7927 650.142 49.3942 650.616 49.8773C651.099 50.3512 651.7 50.5882 652.42 50.5882C653.122 50.5882 653.719 50.3467 654.211 49.8636C654.704 49.3714 654.95 48.7744 654.95 48.0726C654.95 47.3708 654.704 46.7783 654.211 46.2953C653.719 45.8031 653.122 45.557 652.42 45.557C651.719 45.557 651.122 45.7985 650.629 46.2816C650.146 46.7647 649.905 47.3617 649.905 48.0726ZM648.059 48.0726C648.059 46.8421 648.478 45.8076 649.317 44.9691C650.155 44.1214 651.19 43.6976 652.42 43.6976C653.004 43.6976 653.56 43.807 654.088 44.0257C654.626 44.2445 655.1 44.5589 655.51 44.9691C655.92 45.3792 656.235 45.8532 656.454 46.391C656.681 46.9196 656.795 47.4802 656.795 48.0726C656.795 49.294 656.372 50.3285 655.524 51.1761C654.676 52.0147 653.642 52.4339 652.42 52.4339C651.19 52.4339 650.155 52.0147 649.317 51.1761C648.478 50.3376 648.059 49.3031 648.059 48.0726Z" fill="#858AFA"/>
<rect x="119.3" y="21.3004" width="82.9506" height="64.9506" rx="10.6502" fill="#858AFA" fill-opacity="0.1"/>
<path d="M145.518 45.3792L139.078 56.1664H145.518V45.3792ZM145.066 42.8636H148.266V56.1664H150.986V58.4085H148.266V63.2757H145.518V58.4085H136.863V55.7972L145.066 42.8636ZM160.762 42.5628C162.94 42.5628 164.585 43.4515 165.697 45.2289C166.818 47.0062 167.379 49.6358 167.379 53.1175C167.379 56.5993 166.818 59.2289 165.697 61.0062C164.585 62.7835 162.94 63.6722 160.762 63.6722C158.583 63.6722 156.938 62.7835 155.826 61.0062C154.714 59.2289 154.158 56.5993 154.158 53.1175C154.158 49.6358 154.714 47.0062 155.826 45.2289C156.938 43.4515 158.583 42.5628 160.762 42.5628ZM160.762 61.4847C162.056 61.4847 163.018 60.7966 163.646 59.4203C164.285 58.044 164.604 55.943 164.604 53.1175C164.604 51.6136 164.512 50.2555 164.33 49.0433L157.822 59.2289C158.506 60.7328 159.486 61.4847 160.762 61.4847ZM160.762 44.7503C159.477 44.7503 158.515 45.4385 157.877 46.8148C157.248 48.1911 156.934 50.292 156.934 53.1175C156.934 54.4027 157.02 55.6058 157.193 56.7269L163.564 46.5687C162.872 45.3565 161.938 44.7503 160.762 44.7503ZM178.727 58.9144C178.727 59.6253 178.964 60.2223 179.438 60.7054C179.921 61.1885 180.518 61.43 181.229 61.43C181.93 61.43 182.523 61.1885 183.006 60.7054C183.498 60.2132 183.744 59.6162 183.744 58.9144C183.744 58.2126 183.498 57.6156 183.006 57.1234C182.514 56.6312 181.921 56.3851 181.229 56.3851C180.518 56.3851 179.921 56.6266 179.438 57.1097C178.964 57.5928 178.727 58.1943 178.727 58.9144ZM176.881 58.9144C176.881 57.6839 177.3 56.6494 178.139 55.8109C178.977 54.9632 180.007 54.5394 181.229 54.5394C181.812 54.5394 182.363 54.6488 182.883 54.8675C183.411 55.0863 183.885 55.4053 184.305 55.8246C184.724 56.2529 185.048 56.7315 185.275 57.2601C185.503 57.7887 185.617 58.3402 185.617 58.9144C185.617 60.1266 185.193 61.1566 184.346 62.0042C183.498 62.8519 182.459 63.2757 181.229 63.2757C179.989 63.2757 178.954 62.861 178.125 62.0316C177.296 61.193 176.881 60.154 176.881 58.9144ZM170.346 57.2601L169.744 55.7152L184.988 49.6175L185.672 51.1624L170.346 57.2601ZM171.508 48.0726C171.508 48.7927 171.745 49.3942 172.219 49.8773C172.702 50.3512 173.303 50.5882 174.023 50.5882C174.725 50.5882 175.322 50.3467 175.814 49.8636C176.307 49.3714 176.553 48.7744 176.553 48.0726C176.553 47.3708 176.307 46.7783 175.814 46.2953C175.322 45.8031 174.725 45.557 174.023 45.557C173.322 45.557 172.725 45.7985 172.232 46.2816C171.749 46.7647 171.508 47.3617 171.508 48.0726ZM169.662 48.0726C169.662 46.8421 170.081 45.8076 170.92 44.9691C171.758 44.1214 172.793 43.6976 174.023 43.6976C174.607 43.6976 175.163 43.807 175.691 44.0257C176.229 44.2445 176.703 44.5589 177.113 44.9691C177.523 45.3792 177.838 45.8532 178.057 46.391C178.285 46.9196 178.398 47.4802 178.398 48.0726C178.398 49.294 177.975 50.3285 177.127 51.1761C176.279 52.0147 175.245 52.4339 174.023 52.4339C172.793 52.4339 171.758 52.0147 170.92 51.1761C170.081 50.3376 169.662 49.3031 169.662 48.0726Z" fill="#858AFA"/>
<rect x="119.3" y="151.885" width="82.9506" height="64.9506" rx="10.6502" fill="#858AFA" fill-opacity="0.1"/>
<path d="M145.518 175.964L139.078 186.751H145.518V175.964ZM145.066 173.448H148.266V186.751H150.986V188.993H148.266V193.86H145.518V188.993H136.863V186.382L145.066 173.448ZM160.762 173.147C162.94 173.147 164.585 174.036 165.697 175.813C166.818 177.591 167.379 180.22 167.379 183.702C167.379 187.184 166.818 189.813 165.697 191.591C164.585 193.368 162.94 194.257 160.762 194.257C158.583 194.257 156.938 193.368 155.826 191.591C154.714 189.813 154.158 187.184 154.158 183.702C154.158 180.22 154.714 177.591 155.826 175.813C156.938 174.036 158.583 173.147 160.762 173.147ZM160.762 192.069C162.056 192.069 163.018 191.381 163.646 190.005C164.285 188.628 164.604 186.527 164.604 183.702C164.604 182.198 164.512 180.84 164.33 179.628L157.822 189.813C158.506 191.317 159.486 192.069 160.762 192.069ZM160.762 175.335C159.477 175.335 158.515 176.023 157.877 177.399C157.248 178.775 156.934 180.876 156.934 183.702C156.934 184.987 157.02 186.19 157.193 187.311L163.564 177.153C162.872 175.941 161.938 175.335 160.762 175.335ZM178.727 189.499C178.727 190.21 178.964 190.807 179.438 191.29C179.921 191.773 180.518 192.014 181.229 192.014C181.93 192.014 182.523 191.773 183.006 191.29C183.498 190.798 183.744 190.201 183.744 189.499C183.744 188.797 183.498 188.2 183.006 187.708C182.514 187.216 181.921 186.969 181.229 186.969C180.518 186.969 179.921 187.211 179.438 187.694C178.964 188.177 178.727 188.779 178.727 189.499ZM176.881 189.499C176.881 188.268 177.3 187.234 178.139 186.395C178.977 185.548 180.007 185.124 181.229 185.124C181.812 185.124 182.363 185.233 182.883 185.452C183.411 185.671 183.885 185.99 184.305 186.409C184.724 186.837 185.048 187.316 185.275 187.844C185.503 188.373 185.617 188.925 185.617 189.499C185.617 190.711 185.193 191.741 184.346 192.589C183.498 193.436 182.459 193.86 181.229 193.86C179.989 193.86 178.954 193.445 178.125 192.616C177.296 191.777 176.881 190.738 176.881 189.499ZM170.346 187.844L169.744 186.3L184.988 180.202L185.672 181.747L170.346 187.844ZM171.508 178.657C171.508 179.377 171.745 179.979 172.219 180.462C172.702 180.936 173.303 181.173 174.023 181.173C174.725 181.173 175.322 180.931 175.814 180.448C176.307 179.956 176.553 179.359 176.553 178.657C176.553 177.955 176.307 177.363 175.814 176.88C175.322 176.387 174.725 176.141 174.023 176.141C173.322 176.141 172.725 176.383 172.232 176.866C171.749 177.349 171.508 177.946 171.508 178.657ZM169.662 178.657C169.662 177.426 170.081 176.392 170.92 175.553C171.758 174.706 172.793 174.282 174.023 174.282C174.607 174.282 175.163 174.391 175.691 174.61C176.229 174.829 176.703 175.143 177.113 175.553C177.523 175.964 177.838 176.438 178.057 176.975C178.285 177.504 178.398 178.065 178.398 178.657C178.398 179.878 177.975 180.913 177.127 181.76C176.279 182.599 175.245 183.018 174.023 183.018C172.793 183.018 171.758 182.599 170.92 181.76C170.081 180.922 169.662 179.887 169.662 178.657Z" fill="#858AFA"/>
<rect x="599.311" y="151.885" width="82.9506" height="64.9506" rx="10.6502" fill="#858AFA" fill-opacity="0.1"/>
<path d="M625.528 175.964L619.088 186.751H625.528V175.964ZM625.077 173.448H628.276V186.751H630.997V188.993H628.276V193.86H625.528V188.993H616.874V186.382L625.077 173.448ZM640.772 173.147C642.95 173.147 644.596 174.036 645.708 175.813C646.829 177.591 647.389 180.22 647.389 183.702C647.389 187.184 646.829 189.813 645.708 191.591C644.596 193.368 642.95 194.257 640.772 194.257C638.594 194.257 636.948 193.368 635.836 191.591C634.724 189.813 634.168 187.184 634.168 183.702C634.168 180.22 634.724 177.591 635.836 175.813C636.948 174.036 638.594 173.147 640.772 173.147ZM640.772 192.069C642.066 192.069 643.028 191.381 643.657 190.005C644.295 188.628 644.614 186.527 644.614 183.702C644.614 182.198 644.523 180.84 644.34 179.628L637.833 189.813C638.516 191.317 639.496 192.069 640.772 192.069ZM640.772 175.335C639.487 175.335 638.525 176.023 637.887 177.399C637.258 178.775 636.944 180.876 636.944 183.702C636.944 184.987 637.03 186.19 637.204 187.311L643.575 177.153C642.882 175.941 641.948 175.335 640.772 175.335ZM658.737 189.499C658.737 190.21 658.974 190.807 659.448 191.29C659.931 191.773 660.528 192.014 661.239 192.014C661.941 192.014 662.533 191.773 663.016 191.29C663.508 190.798 663.754 190.201 663.754 189.499C663.754 188.797 663.508 188.2 663.016 187.708C662.524 187.216 661.931 186.969 661.239 186.969C660.528 186.969 659.931 187.211 659.448 187.694C658.974 188.177 658.737 188.779 658.737 189.499ZM656.891 189.499C656.891 188.268 657.31 187.234 658.149 186.395C658.987 185.548 660.017 185.124 661.239 185.124C661.822 185.124 662.374 185.233 662.893 185.452C663.422 185.671 663.896 185.99 664.315 186.409C664.734 186.837 665.058 187.316 665.286 187.844C665.514 188.373 665.627 188.925 665.627 189.499C665.627 190.711 665.204 191.741 664.356 192.589C663.508 193.436 662.469 193.86 661.239 193.86C659.999 193.86 658.965 193.445 658.135 192.616C657.306 191.777 656.891 190.738 656.891 189.499ZM650.356 187.844L649.754 186.3L664.999 180.202L665.682 181.747L650.356 187.844ZM651.518 178.657C651.518 179.377 651.755 179.979 652.229 180.462C652.712 180.936 653.314 181.173 654.034 181.173C654.736 181.173 655.333 180.931 655.825 180.448C656.317 179.956 656.563 179.359 656.563 178.657C656.563 177.955 656.317 177.363 655.825 176.88C655.333 176.387 654.736 176.141 654.034 176.141C653.332 176.141 652.735 176.383 652.243 176.866C651.76 177.349 651.518 177.946 651.518 178.657ZM649.672 178.657C649.672 177.426 650.092 176.392 650.93 175.553C651.769 174.706 652.803 174.282 654.034 174.282C654.617 174.282 655.173 174.391 655.702 174.61C656.239 174.829 656.713 175.143 657.124 175.553C657.534 175.964 657.848 176.438 658.067 176.975C658.295 177.504 658.409 178.065 658.409 178.657C658.409 179.878 657.985 180.913 657.137 181.76C656.29 182.599 655.255 183.018 654.034 183.018C652.803 183.018 651.769 182.599 650.93 181.76C650.092 180.922 649.672 179.887 649.672 178.657Z" fill="#858AFA"/>
<g filter="url(#filter0_d_1311_152)">
<rect x="98" y="293" width="605" height="214" rx="16" fill="url(#paint4_linear_1311_152)"/>
<rect x="100" y="295" width="601" height="210" rx="14" stroke="url(#paint5_linear_1311_152)" stroke-opacity="0.2" stroke-width="4"/>
<rect x="595" y="309" width="92" height="57" rx="8" fill="#85E5FA" fill-opacity="0.1"/>
<path d="M610.949 344.689H615.242V329.268L610.102 331.742V329.09L615.215 326.656H617.977V344.689H622.215V347H610.949V344.689ZM632.551 326.287C634.729 326.287 636.374 327.176 637.486 328.953C638.607 330.73 639.168 333.36 639.168 336.842C639.168 340.324 638.607 342.953 637.486 344.73C636.374 346.508 634.729 347.396 632.551 347.396C630.372 347.396 628.727 346.508 627.615 344.73C626.503 342.953 625.947 340.324 625.947 336.842C625.947 333.36 626.503 330.73 627.615 328.953C628.727 327.176 630.372 326.287 632.551 326.287ZM632.551 345.209C633.845 345.209 634.807 344.521 635.436 343.145C636.074 341.768 636.393 339.667 636.393 336.842C636.393 335.338 636.301 333.98 636.119 332.768L629.611 342.953C630.295 344.457 631.275 345.209 632.551 345.209ZM632.551 328.475C631.266 328.475 630.304 329.163 629.666 330.539C629.037 331.915 628.723 334.016 628.723 336.842C628.723 338.127 628.809 339.33 628.982 340.451L635.354 330.293C634.661 329.081 633.727 328.475 632.551 328.475ZM649.422 326.287C651.6 326.287 653.245 327.176 654.357 328.953C655.479 330.73 656.039 333.36 656.039 336.842C656.039 340.324 655.479 342.953 654.357 344.73C653.245 346.508 651.6 347.396 649.422 347.396C647.243 347.396 645.598 346.508 644.486 344.73C643.374 342.953 642.818 340.324 642.818 336.842C642.818 333.36 643.374 330.73 644.486 328.953C645.598 327.176 647.243 326.287 649.422 326.287ZM649.422 345.209C650.716 345.209 651.678 344.521 652.307 343.145C652.945 341.768 653.264 339.667 653.264 336.842C653.264 335.338 653.173 333.98 652.99 332.768L646.482 342.953C647.166 344.457 648.146 345.209 649.422 345.209ZM649.422 328.475C648.137 328.475 647.175 329.163 646.537 330.539C645.908 331.915 645.594 334.016 645.594 336.842C645.594 338.127 645.68 339.33 645.854 340.451L652.225 330.293C651.532 329.081 650.598 328.475 649.422 328.475ZM667.387 342.639C667.387 343.35 667.624 343.947 668.098 344.43C668.581 344.913 669.178 345.154 669.889 345.154C670.59 345.154 671.183 344.913 671.666 344.43C672.158 343.938 672.404 343.34 672.404 342.639C672.404 341.937 672.158 341.34 671.666 340.848C671.174 340.355 670.581 340.109 669.889 340.109C669.178 340.109 668.581 340.351 668.098 340.834C667.624 341.317 667.387 341.919 667.387 342.639ZM665.541 342.639C665.541 341.408 665.96 340.374 666.799 339.535C667.637 338.688 668.667 338.264 669.889 338.264C670.472 338.264 671.023 338.373 671.543 338.592C672.072 338.811 672.546 339.13 672.965 339.549C673.384 339.977 673.708 340.456 673.936 340.984C674.163 341.513 674.277 342.064 674.277 342.639C674.277 343.851 673.854 344.881 673.006 345.729C672.158 346.576 671.119 347 669.889 347C668.649 347 667.615 346.585 666.785 345.756C665.956 344.917 665.541 343.878 665.541 342.639ZM659.006 340.984L658.404 339.439L673.648 333.342L674.332 334.887L659.006 340.984ZM660.168 331.797C660.168 332.517 660.405 333.118 660.879 333.602C661.362 334.076 661.964 334.312 662.684 334.312C663.385 334.312 663.982 334.071 664.475 333.588C664.967 333.096 665.213 332.499 665.213 331.797C665.213 331.095 664.967 330.503 664.475 330.02C663.982 329.527 663.385 329.281 662.684 329.281C661.982 329.281 661.385 329.523 660.893 330.006C660.41 330.489 660.168 331.086 660.168 331.797ZM658.322 331.797C658.322 330.566 658.742 329.532 659.58 328.693C660.419 327.846 661.453 327.422 662.684 327.422C663.267 327.422 663.823 327.531 664.352 327.75C664.889 327.969 665.363 328.283 665.773 328.693C666.184 329.104 666.498 329.577 666.717 330.115C666.945 330.644 667.059 331.204 667.059 331.797C667.059 333.018 666.635 334.053 665.787 334.9C664.939 335.739 663.905 336.158 662.684 336.158C661.453 336.158 660.419 335.739 659.58 334.9C658.742 334.062 658.322 333.027 658.322 331.797Z" fill="#85E5FA"/>
<rect x="114" y="309" width="92" height="57" rx="8" fill="#85E5FA" fill-opacity="0.1"/>
<path d="M129.949 344.689H134.242V329.268L129.102 331.742V329.09L134.215 326.656H136.977V344.689H141.215V347H129.949V344.689ZM151.551 326.287C153.729 326.287 155.374 327.176 156.486 328.953C157.607 330.73 158.168 333.36 158.168 336.842C158.168 340.324 157.607 342.953 156.486 344.73C155.374 346.508 153.729 347.396 151.551 347.396C149.372 347.396 147.727 346.508 146.615 344.73C145.503 342.953 144.947 340.324 144.947 336.842C144.947 333.36 145.503 330.73 146.615 328.953C147.727 327.176 149.372 326.287 151.551 326.287ZM151.551 345.209C152.845 345.209 153.807 344.521 154.436 343.145C155.074 341.768 155.393 339.667 155.393 336.842C155.393 335.338 155.301 333.98 155.119 332.768L148.611 342.953C149.295 344.457 150.275 345.209 151.551 345.209ZM151.551 328.475C150.266 328.475 149.304 329.163 148.666 330.539C148.037 331.915 147.723 334.016 147.723 336.842C147.723 338.127 147.809 339.33 147.982 340.451L154.354 330.293C153.661 329.081 152.727 328.475 151.551 328.475ZM168.422 326.287C170.6 326.287 172.245 327.176 173.357 328.953C174.479 330.73 175.039 333.36 175.039 336.842C175.039 340.324 174.479 342.953 173.357 344.73C172.245 346.508 170.6 347.396 168.422 347.396C166.243 347.396 164.598 346.508 163.486 344.73C162.374 342.953 161.818 340.324 161.818 336.842C161.818 333.36 162.374 330.73 163.486 328.953C164.598 327.176 166.243 326.287 168.422 326.287ZM168.422 345.209C169.716 345.209 170.678 344.521 171.307 343.145C171.945 341.768 172.264 339.667 172.264 336.842C172.264 335.338 172.173 333.98 171.99 332.768L165.482 342.953C166.166 344.457 167.146 345.209 168.422 345.209ZM168.422 328.475C167.137 328.475 166.175 329.163 165.537 330.539C164.908 331.915 164.594 334.016 164.594 336.842C164.594 338.127 164.68 339.33 164.854 340.451L171.225 330.293C170.532 329.081 169.598 328.475 168.422 328.475ZM186.387 342.639C186.387 343.35 186.624 343.947 187.098 344.43C187.581 344.913 188.178 345.154 188.889 345.154C189.59 345.154 190.183 344.913 190.666 344.43C191.158 343.938 191.404 343.34 191.404 342.639C191.404 341.937 191.158 341.34 190.666 340.848C190.174 340.355 189.581 340.109 188.889 340.109C188.178 340.109 187.581 340.351 187.098 340.834C186.624 341.317 186.387 341.919 186.387 342.639ZM184.541 342.639C184.541 341.408 184.96 340.374 185.799 339.535C186.637 338.688 187.667 338.264 188.889 338.264C189.472 338.264 190.023 338.373 190.543 338.592C191.072 338.811 191.546 339.13 191.965 339.549C192.384 339.977 192.708 340.456 192.936 340.984C193.163 341.513 193.277 342.064 193.277 342.639C193.277 343.851 192.854 344.881 192.006 345.729C191.158 346.576 190.119 347 188.889 347C187.649 347 186.615 346.585 185.785 345.756C184.956 344.917 184.541 343.878 184.541 342.639ZM178.006 340.984L177.404 339.439L192.648 333.342L193.332 334.887L178.006 340.984ZM179.168 331.797C179.168 332.517 179.405 333.118 179.879 333.602C180.362 334.076 180.964 334.312 181.684 334.312C182.385 334.312 182.982 334.071 183.475 333.588C183.967 333.096 184.213 332.499 184.213 331.797C184.213 331.095 183.967 330.503 183.475 330.02C182.982 329.527 182.385 329.281 181.684 329.281C180.982 329.281 180.385 329.523 179.893 330.006C179.41 330.489 179.168 331.086 179.168 331.797ZM177.322 331.797C177.322 330.566 177.742 329.532 178.58 328.693C179.419 327.846 180.453 327.422 181.684 327.422C182.267 327.422 182.823 327.531 183.352 327.75C183.889 327.969 184.363 328.283 184.773 328.693C185.184 329.104 185.498 329.577 185.717 330.115C185.945 330.644 186.059 331.204 186.059 331.797C186.059 333.018 185.635 334.053 184.787 334.9C183.939 335.739 182.905 336.158 181.684 336.158C180.453 336.158 179.419 335.739 178.58 334.9C177.742 334.062 177.322 333.027 177.322 331.797Z" fill="#85E5FA"/>
<rect x="114" y="434" width="92" height="57" rx="8" fill="#85E5FA" fill-opacity="0.1"/>
<path d="M129.949 469.689H134.242V454.268L129.102 456.742V454.09L134.215 451.656H136.977V469.689H141.215V472H129.949V469.689ZM151.551 451.287C153.729 451.287 155.374 452.176 156.486 453.953C157.607 455.73 158.168 458.36 158.168 461.842C158.168 465.324 157.607 467.953 156.486 469.73C155.374 471.508 153.729 472.396 151.551 472.396C149.372 472.396 147.727 471.508 146.615 469.73C145.503 467.953 144.947 465.324 144.947 461.842C144.947 458.36 145.503 455.73 146.615 453.953C147.727 452.176 149.372 451.287 151.551 451.287ZM151.551 470.209C152.845 470.209 153.807 469.521 154.436 468.145C155.074 466.768 155.393 464.667 155.393 461.842C155.393 460.338 155.301 458.98 155.119 457.768L148.611 467.953C149.295 469.457 150.275 470.209 151.551 470.209ZM151.551 453.475C150.266 453.475 149.304 454.163 148.666 455.539C148.037 456.915 147.723 459.016 147.723 461.842C147.723 463.127 147.809 464.33 147.982 465.451L154.354 455.293C153.661 454.081 152.727 453.475 151.551 453.475ZM168.422 451.287C170.6 451.287 172.245 452.176 173.357 453.953C174.479 455.73 175.039 458.36 175.039 461.842C175.039 465.324 174.479 467.953 173.357 469.73C172.245 471.508 170.6 472.396 168.422 472.396C166.243 472.396 164.598 471.508 163.486 469.73C162.374 467.953 161.818 465.324 161.818 461.842C161.818 458.36 162.374 455.73 163.486 453.953C164.598 452.176 166.243 451.287 168.422 451.287ZM168.422 470.209C169.716 470.209 170.678 469.521 171.307 468.145C171.945 466.768 172.264 464.667 172.264 461.842C172.264 460.338 172.173 458.98 171.99 457.768L165.482 467.953C166.166 469.457 167.146 470.209 168.422 470.209ZM168.422 453.475C167.137 453.475 166.175 454.163 165.537 455.539C164.908 456.915 164.594 459.016 164.594 461.842C164.594 463.127 164.68 464.33 164.854 465.451L171.225 455.293C170.532 454.081 169.598 453.475 168.422 453.475ZM186.387 467.639C186.387 468.35 186.624 468.947 187.098 469.43C187.581 469.913 188.178 470.154 188.889 470.154C189.59 470.154 190.183 469.913 190.666 469.43C191.158 468.938 191.404 468.34 191.404 467.639C191.404 466.937 191.158 466.34 190.666 465.848C190.174 465.355 189.581 465.109 188.889 465.109C188.178 465.109 187.581 465.351 187.098 465.834C186.624 466.317 186.387 466.919 186.387 467.639ZM184.541 467.639C184.541 466.408 184.96 465.374 185.799 464.535C186.637 463.688 187.667 463.264 188.889 463.264C189.472 463.264 190.023 463.373 190.543 463.592C191.072 463.811 191.546 464.13 191.965 464.549C192.384 464.977 192.708 465.456 192.936 465.984C193.163 466.513 193.277 467.064 193.277 467.639C193.277 468.851 192.854 469.881 192.006 470.729C191.158 471.576 190.119 472 188.889 472C187.649 472 186.615 471.585 185.785 470.756C184.956 469.917 184.541 468.878 184.541 467.639ZM178.006 465.984L177.404 464.439L192.648 458.342L193.332 459.887L178.006 465.984ZM179.168 456.797C179.168 457.517 179.405 458.118 179.879 458.602C180.362 459.076 180.964 459.312 181.684 459.312C182.385 459.312 182.982 459.071 183.475 458.588C183.967 458.096 184.213 457.499 184.213 456.797C184.213 456.095 183.967 455.503 183.475 455.02C182.982 454.527 182.385 454.281 181.684 454.281C180.982 454.281 180.385 454.523 179.893 455.006C179.41 455.489 179.168 456.086 179.168 456.797ZM177.322 456.797C177.322 455.566 177.742 454.532 178.58 453.693C179.419 452.846 180.453 452.422 181.684 452.422C182.267 452.422 182.823 452.531 183.352 452.75C183.889 452.969 184.363 453.283 184.773 453.693C185.184 454.104 185.498 454.577 185.717 455.115C185.945 455.644 186.059 456.204 186.059 456.797C186.059 458.018 185.635 459.053 184.787 459.9C183.939 460.739 182.905 461.158 181.684 461.158C180.453 461.158 179.419 460.739 178.58 459.9C177.742 459.062 177.322 458.027 177.322 456.797Z" fill="#85E5FA"/>
<rect x="595" y="434" width="92" height="57" rx="8" fill="#85E5FA" fill-opacity="0.1"/>
<path d="M610.949 469.689H615.242V454.268L610.102 456.742V454.09L615.215 451.656H617.977V469.689H622.215V472H610.949V469.689ZM632.551 451.287C634.729 451.287 636.374 452.176 637.486 453.953C638.607 455.73 639.168 458.36 639.168 461.842C639.168 465.324 638.607 467.953 637.486 469.73C636.374 471.508 634.729 472.396 632.551 472.396C630.372 472.396 628.727 471.508 627.615 469.73C626.503 467.953 625.947 465.324 625.947 461.842C625.947 458.36 626.503 455.73 627.615 453.953C628.727 452.176 630.372 451.287 632.551 451.287ZM632.551 470.209C633.845 470.209 634.807 469.521 635.436 468.145C636.074 466.768 636.393 464.667 636.393 461.842C636.393 460.338 636.301 458.98 636.119 457.768L629.611 467.953C630.295 469.457 631.275 470.209 632.551 470.209ZM632.551 453.475C631.266 453.475 630.304 454.163 629.666 455.539C629.037 456.915 628.723 459.016 628.723 461.842C628.723 463.127 628.809 464.33 628.982 465.451L635.354 455.293C634.661 454.081 633.727 453.475 632.551 453.475ZM649.422 451.287C651.6 451.287 653.245 452.176 654.357 453.953C655.479 455.73 656.039 458.36 656.039 461.842C656.039 465.324 655.479 467.953 654.357 469.73C653.245 471.508 651.6 472.396 649.422 472.396C647.243 472.396 645.598 471.508 644.486 469.73C643.374 467.953 642.818 465.324 642.818 461.842C642.818 458.36 643.374 455.73 644.486 453.953C645.598 452.176 647.243 451.287 649.422 451.287ZM649.422 470.209C650.716 470.209 651.678 469.521 652.307 468.145C652.945 466.768 653.264 464.667 653.264 461.842C653.264 460.338 653.173 458.98 652.99 457.768L646.482 467.953C647.166 469.457 648.146 470.209 649.422 470.209ZM649.422 453.475C648.137 453.475 647.175 454.163 646.537 455.539C645.908 456.915 645.594 459.016 645.594 461.842C645.594 463.127 645.68 464.33 645.854 465.451L652.225 455.293C651.532 454.081 650.598 453.475 649.422 453.475ZM667.387 467.639C667.387 468.35 667.624 468.947 668.098 469.43C668.581 469.913 669.178 470.154 669.889 470.154C670.59 470.154 671.183 469.913 671.666 469.43C672.158 468.938 672.404 468.34 672.404 467.639C672.404 466.937 672.158 466.34 671.666 465.848C671.174 465.355 670.581 465.109 669.889 465.109C669.178 465.109 668.581 465.351 668.098 465.834C667.624 466.317 667.387 466.919 667.387 467.639ZM665.541 467.639C665.541 466.408 665.96 465.374 666.799 464.535C667.637 463.688 668.667 463.264 669.889 463.264C670.472 463.264 671.023 463.373 671.543 463.592C672.072 463.811 672.546 464.13 672.965 464.549C673.384 464.977 673.708 465.456 673.936 465.984C674.163 466.513 674.277 467.064 674.277 467.639C674.277 468.851 673.854 469.881 673.006 470.729C672.158 471.576 671.119 472 669.889 472C668.649 472 667.615 471.585 666.785 470.756C665.956 469.917 665.541 468.878 665.541 467.639ZM659.006 465.984L658.404 464.439L673.648 458.342L674.332 459.887L659.006 465.984ZM660.168 456.797C660.168 457.517 660.405 458.118 660.879 458.602C661.362 459.076 661.964 459.312 662.684 459.312C663.385 459.312 663.982 459.071 664.475 458.588C664.967 458.096 665.213 457.499 665.213 456.797C665.213 456.095 664.967 455.503 664.475 455.02C663.982 454.527 663.385 454.281 662.684 454.281C661.982 454.281 661.385 454.523 660.893 455.006C660.41 455.489 660.168 456.086 660.168 456.797ZM658.322 456.797C658.322 455.566 658.742 454.532 659.58 453.693C660.419 452.846 661.453 452.422 662.684 452.422C663.267 452.422 663.823 452.531 664.352 452.75C664.889 452.969 665.363 453.283 665.773 453.693C666.184 454.104 666.498 454.577 666.717 455.115C666.945 455.644 667.059 456.204 667.059 456.797C667.059 458.018 666.635 459.053 665.787 459.9C664.939 460.739 663.905 461.158 662.684 461.158C661.453 461.158 660.419 460.739 659.58 459.9C658.742 459.062 658.322 458.027 658.322 456.797Z" fill="#85E5FA"/>
</g>
</g>
<defs>
<filter id="filter0_d_1311_152" x="-152" y="43" width="1105" height="714" filterUnits="userSpaceOnUse" color-interpolation-filters="sRGB">
<feFlood flood-opacity="0" result="BackgroundImageFix"/>
<feColorMatrix in="SourceAlpha" type="matrix" values="0 0 0 0 0 0 0 0 0 0 0 0 0 0 0 0 0 0 127 0" result="hardAlpha"/>
<feOffset/>
<feGaussianBlur stdDeviation="125"/>
<feColorMatrix type="matrix" values="0 0 0 0 0.521569 0 0 0 0 0.898039 0 0 0 0 0.980392 0 0 0 0.05 0"/>
<feBlend mode="normal" in2="BackgroundImageFix" result="effect1_dropShadow_1311_152"/>
<feBlend mode="normal" in="SourceGraphic" in2="effect1_dropShadow_1311_152" result="shape"/>
</filter>
<linearGradient id="paint0_linear_1311_152" x1="400.5" y1="562" x2="400.5" y2="800" gradientUnits="userSpaceOnUse">
<stop stop-color="#C6FA85" stop-opacity="0.06"/>
<stop offset="1" stop-color="#C6FA85" stop-opacity="0"/>
</linearGradient>
<linearGradient id="paint1_linear_1311_152" x1="400.5" y1="562" x2="400.5" y2="800" gradientUnits="userSpaceOnUse">
<stop stop-color="#C6FA85"/>
<stop offset="1" stop-color="#C6FA85" stop-opacity="0.6"/>
</linearGradient>
<linearGradient id="paint2_linear_1311_152" x1="400.5" y1="0" x2="400.5" y2="238" gradientUnits="userSpaceOnUse">
<stop stop-color="#858AFA" stop-opacity="0"/>
<stop offset="1" stop-color="#858AFA" stop-opacity="0.06"/>
</linearGradient>
<linearGradient id="paint3_linear_1311_152" x1="400.5" y1="0" x2="400.5" y2="238" gradientUnits="userSpaceOnUse">
<stop stop-color="#858AFA" stop-opacity="0.6"/>
<stop offset="1" stop-color="#858AFA"/>
</linearGradient>
<linearGradient id="paint4_linear_1311_152" x1="400.5" y1="293" x2="400.5" y2="507" gradientUnits="userSpaceOnUse">
<stop stop-color="#85E5FA" stop-opacity="0.06"/>
<stop offset="1" stop-color="#85E5FA" stop-opacity="0"/>
</linearGradient>
<linearGradient id="paint5_linear_1311_152" x1="400.5" y1="293" x2="400.5" y2="507" gradientUnits="userSpaceOnUse">
<stop stop-color="#85E5FA"/>
<stop offset="1" stop-color="#85E5FA" stop-opacity="0.3"/>
</linearGradient>
<clipPath id="clip0_1311_152">
<rect width="800" height="800" fill="white"/>
</clipPath>
</defs>
</svg>
