<svg width="800" height="800" viewBox="0 0 800 800" fill="none" xmlns="http://www.w3.org/2000/svg">
<g clip-path="url(#clip0_1311_152)">
<rect x="55" y="189" width="691" height="422" rx="56" fill="#D9D9D9"/>
<rect x="55" y="189" width="691" height="422" rx="56" fill="#010214"/>
<g filter="url(#filter0_d_1311_152)">
<rect y="444" width="578" height="356" rx="17.3946" fill="url(#paint0_linear_1311_152)"/>
<rect x="2.17432" y="446.174" width="573.651" height="351.651" rx="15.2203" stroke="url(#paint1_linear_1311_152)" stroke-opacity="0.2" stroke-width="4.34864"/>
<rect x="468.471" y="461.395" width="92.0919" height="68.0919" rx="8.69729" fill="#C6FA85" fill-opacity="0.1"/>
<path d="M494.9 484.431L486.621 498.3H494.9V484.431ZM494.32 481.196H498.433V498.3H501.931V501.183H498.433V507.441H494.9V501.183H483.773V497.825L494.32 481.196ZM514.5 480.81C517.3 480.81 519.416 481.952 520.845 484.237C522.287 486.523 523.007 489.903 523.007 494.38C523.007 498.857 522.287 502.237 520.845 504.523C519.416 506.808 517.3 507.95 514.5 507.95C511.699 507.95 509.583 506.808 508.154 504.523C506.724 502.237 506.009 498.857 506.009 494.38C506.009 489.903 506.724 486.523 508.154 484.237C509.583 481.952 511.699 480.81 514.5 480.81ZM514.5 505.138C516.164 505.138 517.4 504.253 518.208 502.483C519.029 500.714 519.439 498.013 519.439 494.38C519.439 492.446 519.322 490.7 519.087 489.142L510.72 502.237C511.599 504.171 512.859 505.138 514.5 505.138ZM514.5 483.622C512.847 483.622 511.611 484.507 510.791 486.276C509.982 488.046 509.578 490.747 509.578 494.38C509.578 496.032 509.689 497.579 509.912 499.021L518.103 485.96C517.212 484.401 516.011 483.622 514.5 483.622ZM537.597 501.833C537.597 502.747 537.902 503.515 538.511 504.136C539.132 504.757 539.9 505.067 540.814 505.067C541.716 505.067 542.478 504.757 543.099 504.136C543.732 503.503 544.048 502.735 544.048 501.833C544.048 500.931 543.732 500.163 543.099 499.53C542.466 498.898 541.705 498.581 540.814 498.581C539.9 498.581 539.132 498.892 538.511 499.513C537.902 500.134 537.597 500.907 537.597 501.833ZM535.224 501.833C535.224 500.251 535.763 498.921 536.841 497.843C537.919 496.753 539.244 496.208 540.814 496.208C541.564 496.208 542.273 496.349 542.941 496.63C543.621 496.911 544.23 497.321 544.769 497.86C545.308 498.411 545.724 499.026 546.017 499.706C546.31 500.386 546.457 501.095 546.457 501.833C546.457 503.392 545.912 504.716 544.822 505.806C543.732 506.896 542.396 507.441 540.814 507.441C539.22 507.441 537.89 506.907 536.824 505.841C535.757 504.763 535.224 503.427 535.224 501.833ZM526.822 499.706L526.048 497.72L545.648 489.88L546.527 491.866L526.822 499.706ZM528.316 487.894C528.316 488.819 528.621 489.593 529.23 490.214C529.851 490.823 530.625 491.128 531.55 491.128C532.453 491.128 533.22 490.817 533.853 490.196C534.486 489.564 534.802 488.796 534.802 487.894C534.802 486.991 534.486 486.23 533.853 485.608C533.22 484.976 532.453 484.659 531.55 484.659C530.648 484.659 529.88 484.97 529.248 485.591C528.626 486.212 528.316 486.98 528.316 487.894ZM525.943 487.894C525.943 486.312 526.482 484.982 527.56 483.903C528.638 482.814 529.968 482.269 531.55 482.269C532.3 482.269 533.015 482.409 533.695 482.691C534.386 482.972 534.996 483.376 535.523 483.903C536.05 484.431 536.455 485.04 536.736 485.732C537.029 486.411 537.175 487.132 537.175 487.894C537.175 489.464 536.63 490.794 535.541 491.884C534.451 492.962 533.121 493.501 531.55 493.501C529.968 493.501 528.638 492.962 527.56 491.884C526.482 490.806 525.943 489.476 525.943 487.894Z" fill="#C6FA85"/>
<rect x="17.3945" y="461.395" width="92.0919" height="68.0919" rx="8.69729" fill="#C6FA85" fill-opacity="0.1"/>
<path d="M43.8232 484.431L35.5439 498.3H43.8232V484.431ZM43.2432 481.196H47.3564V498.3H50.8545V501.183H47.3564V507.441H43.8232V501.183H32.6963V497.825L43.2432 481.196ZM63.4229 480.81C66.2236 480.81 68.3389 481.952 69.7686 484.237C71.21 486.523 71.9307 489.903 71.9307 494.38C71.9307 498.857 71.21 502.237 69.7686 504.523C68.3389 506.808 66.2236 507.95 63.4229 507.95C60.6221 507.95 58.5068 506.808 57.0771 504.523C55.6475 502.237 54.9326 498.857 54.9326 494.38C54.9326 489.903 55.6475 486.523 57.0771 484.237C58.5068 481.952 60.6221 480.81 63.4229 480.81ZM63.4229 505.138C65.0869 505.138 66.3232 504.253 67.1318 502.483C67.9521 500.714 68.3623 498.013 68.3623 494.38C68.3623 492.446 68.2451 490.7 68.0107 489.142L59.6436 502.237C60.5225 504.171 61.7822 505.138 63.4229 505.138ZM63.4229 483.622C61.7705 483.622 60.5342 484.507 59.7139 486.276C58.9053 488.046 58.501 490.747 58.501 494.38C58.501 496.032 58.6123 497.579 58.835 499.021L67.0264 485.96C66.1357 484.401 64.9346 483.622 63.4229 483.622ZM86.5205 501.833C86.5205 502.747 86.8252 503.515 87.4346 504.136C88.0557 504.757 88.8232 505.067 89.7373 505.067C90.6396 505.067 91.4014 504.757 92.0225 504.136C92.6553 503.503 92.9717 502.735 92.9717 501.833C92.9717 500.931 92.6553 500.163 92.0225 499.53C91.3896 498.898 90.6279 498.581 89.7373 498.581C88.8232 498.581 88.0557 498.892 87.4346 499.513C86.8252 500.134 86.5205 500.907 86.5205 501.833ZM84.1475 501.833C84.1475 500.251 84.6865 498.921 85.7646 497.843C86.8428 496.753 88.167 496.208 89.7373 496.208C90.4873 496.208 91.1963 496.349 91.8643 496.63C92.5439 496.911 93.1533 497.321 93.6924 497.86C94.2314 498.411 94.6475 499.026 94.9404 499.706C95.2334 500.386 95.3799 501.095 95.3799 501.833C95.3799 503.392 94.835 504.716 93.7451 505.806C92.6553 506.896 91.3193 507.441 89.7373 507.441C88.1436 507.441 86.8135 506.907 85.7471 505.841C84.6807 504.763 84.1475 503.427 84.1475 501.833ZM75.7451 499.706L74.9717 497.72L94.5713 489.88L95.4502 491.866L75.7451 499.706ZM77.2393 487.894C77.2393 488.819 77.5439 489.593 78.1533 490.214C78.7744 490.823 79.5479 491.128 80.4736 491.128C81.376 491.128 82.1436 490.817 82.7764 490.196C83.4092 489.564 83.7256 488.796 83.7256 487.894C83.7256 486.991 83.4092 486.23 82.7764 485.608C82.1436 484.976 81.376 484.659 80.4736 484.659C79.5713 484.659 78.8037 484.97 78.1709 485.591C77.5498 486.212 77.2393 486.98 77.2393 487.894ZM74.8662 487.894C74.8662 486.312 75.4053 484.982 76.4834 483.903C77.5615 482.814 78.8916 482.269 80.4736 482.269C81.2236 482.269 81.9385 482.409 82.6182 482.691C83.3096 482.972 83.9189 483.376 84.4463 483.903C84.9736 484.431 85.3779 485.04 85.6592 485.732C85.9521 486.411 86.0986 487.132 86.0986 487.894C86.0986 489.464 85.5537 490.794 84.4639 491.884C83.374 492.962 82.0439 493.501 80.4736 493.501C78.8916 493.501 77.5615 492.962 76.4834 491.884C75.4053 490.806 74.8662 489.476 74.8662 487.894Z" fill="#C6FA85"/>
<rect x="17.3945" y="714" width="113.092" height="68.0919" rx="8.69729" fill="#C6FA85" fill-opacity="0.1"/>
<path d="M35.3037 757.075H40.8232V737.247L34.2139 740.429V737.018L40.7881 733.89H44.3389V757.075H49.7881V760.046H35.3037V757.075ZM63.0771 733.415C65.8779 733.415 67.9932 734.558 69.4229 736.843C70.8643 739.128 71.585 742.509 71.585 746.985C71.585 751.462 70.8643 754.843 69.4229 757.128C67.9932 759.413 65.8779 760.556 63.0771 760.556C60.2764 760.556 58.1611 759.413 56.7314 757.128C55.3018 754.843 54.5869 751.462 54.5869 746.985C54.5869 742.509 55.3018 739.128 56.7314 736.843C58.1611 734.558 60.2764 733.415 63.0771 733.415ZM63.0771 757.743C64.7412 757.743 65.9775 756.858 66.7861 755.089C67.6064 753.319 68.0166 750.618 68.0166 746.985C68.0166 745.052 67.8994 743.306 67.665 741.747L59.2979 754.843C60.1768 756.776 61.4365 757.743 63.0771 757.743ZM63.0771 736.227C61.4248 736.227 60.1885 737.112 59.3682 738.882C58.5596 740.651 58.1553 743.352 58.1553 746.985C58.1553 748.638 58.2666 750.185 58.4893 751.626L66.6807 738.565C65.79 737.007 64.5889 736.227 63.0771 736.227ZM84.7686 733.415C87.5693 733.415 89.6846 734.558 91.1143 736.843C92.5557 739.128 93.2764 742.509 93.2764 746.985C93.2764 751.462 92.5557 754.843 91.1143 757.128C89.6846 759.413 87.5693 760.556 84.7686 760.556C81.9678 760.556 79.8525 759.413 78.4229 757.128C76.9932 754.843 76.2783 751.462 76.2783 746.985C76.2783 742.509 76.9932 739.128 78.4229 736.843C79.8525 734.558 81.9678 733.415 84.7686 733.415ZM84.7686 757.743C86.4326 757.743 87.6689 756.858 88.4775 755.089C89.2979 753.319 89.708 750.618 89.708 746.985C89.708 745.052 89.5908 743.306 89.3564 741.747L80.9893 754.843C81.8682 756.776 83.1279 757.743 84.7686 757.743ZM84.7686 736.227C83.1162 736.227 81.8799 737.112 81.0596 738.882C80.251 740.651 79.8467 743.352 79.8467 746.985C79.8467 748.638 79.958 750.185 80.1807 751.626L88.3721 738.565C87.4814 737.007 86.2803 736.227 84.7686 736.227ZM107.866 754.438C107.866 755.352 108.171 756.12 108.78 756.741C109.401 757.362 110.169 757.673 111.083 757.673C111.985 757.673 112.747 757.362 113.368 756.741C114.001 756.108 114.317 755.341 114.317 754.438C114.317 753.536 114.001 752.768 113.368 752.136C112.735 751.503 111.974 751.186 111.083 751.186C110.169 751.186 109.401 751.497 108.78 752.118C108.171 752.739 107.866 753.513 107.866 754.438ZM105.493 754.438C105.493 752.856 106.032 751.526 107.11 750.448C108.188 749.358 109.513 748.813 111.083 748.813C111.833 748.813 112.542 748.954 113.21 749.235C113.89 749.517 114.499 749.927 115.038 750.466C115.577 751.017 115.993 751.632 116.286 752.311C116.579 752.991 116.726 753.7 116.726 754.438C116.726 755.997 116.181 757.321 115.091 758.411C114.001 759.501 112.665 760.046 111.083 760.046C109.489 760.046 108.159 759.513 107.093 758.446C106.026 757.368 105.493 756.032 105.493 754.438ZM97.0908 752.311L96.3174 750.325L115.917 742.485L116.796 744.472L97.0908 752.311ZM98.585 740.499C98.585 741.425 98.8896 742.198 99.499 742.819C100.12 743.429 100.894 743.733 101.819 743.733C102.722 743.733 103.489 743.423 104.122 742.802C104.755 742.169 105.071 741.401 105.071 740.499C105.071 739.597 104.755 738.835 104.122 738.214C103.489 737.581 102.722 737.265 101.819 737.265C100.917 737.265 100.149 737.575 99.5166 738.196C98.8955 738.817 98.585 739.585 98.585 740.499ZM96.2119 740.499C96.2119 738.917 96.751 737.587 97.8291 736.509C98.9072 735.419 100.237 734.874 101.819 734.874C102.569 734.874 103.284 735.015 103.964 735.296C104.655 735.577 105.265 735.981 105.792 736.509C106.319 737.036 106.724 737.645 107.005 738.337C107.298 739.017 107.444 739.737 107.444 740.499C107.444 742.069 106.899 743.399 105.81 744.489C104.72 745.567 103.39 746.106 101.819 746.106C100.237 746.106 98.9072 745.567 97.8291 744.489C96.751 743.411 96.2119 742.081 96.2119 740.499Z" fill="#C6FA85"/>
<rect x="447.205" y="714" width="113.092" height="68.0919" rx="8.69729" fill="#C6FA85" fill-opacity="0.1"/>
<path d="M465.114 757.075H470.633V737.247L464.024 740.429V737.018L470.598 733.89H474.149V757.075H479.598V760.046H465.114V757.075ZM492.887 733.415C495.688 733.415 497.803 734.558 499.233 736.843C500.674 739.128 501.395 742.509 501.395 746.985C501.395 751.462 500.674 754.843 499.233 757.128C497.803 759.413 495.688 760.556 492.887 760.556C490.086 760.556 487.971 759.413 486.542 757.128C485.112 754.843 484.397 751.462 484.397 746.985C484.397 742.509 485.112 739.128 486.542 736.843C487.971 734.558 490.086 733.415 492.887 733.415ZM492.887 757.743C494.551 757.743 495.788 756.858 496.596 755.089C497.417 753.319 497.827 750.618 497.827 746.985C497.827 745.052 497.709 743.306 497.475 741.747L489.108 754.843C489.987 756.776 491.247 757.743 492.887 757.743ZM492.887 736.227C491.235 736.227 489.999 737.112 489.178 738.882C488.37 740.651 487.965 743.352 487.965 746.985C487.965 748.638 488.077 750.185 488.299 751.626L496.491 738.565C495.6 737.007 494.399 736.227 492.887 736.227ZM514.579 733.415C517.379 733.415 519.495 734.558 520.924 736.843C522.366 739.128 523.086 742.509 523.086 746.985C523.086 751.462 522.366 754.843 520.924 757.128C519.495 759.413 517.379 760.556 514.579 760.556C511.778 760.556 509.663 759.413 508.233 757.128C506.803 754.843 506.088 751.462 506.088 746.985C506.088 742.509 506.803 739.128 508.233 736.843C509.663 734.558 511.778 733.415 514.579 733.415ZM514.579 757.743C516.243 757.743 517.479 756.858 518.288 755.089C519.108 753.319 519.518 750.618 519.518 746.985C519.518 745.052 519.401 743.306 519.167 741.747L510.799 754.843C511.678 756.776 512.938 757.743 514.579 757.743ZM514.579 736.227C512.926 736.227 511.69 737.112 510.87 738.882C510.061 740.651 509.657 743.352 509.657 746.985C509.657 748.638 509.768 750.185 509.991 751.626L518.182 738.565C517.292 737.007 516.09 736.227 514.579 736.227ZM537.676 754.438C537.676 755.352 537.981 756.12 538.59 756.741C539.211 757.362 539.979 757.673 540.893 757.673C541.795 757.673 542.557 757.362 543.178 756.741C543.811 756.108 544.127 755.341 544.127 754.438C544.127 753.536 543.811 752.768 543.178 752.136C542.545 751.503 541.784 751.186 540.893 751.186C539.979 751.186 539.211 751.497 538.59 752.118C537.981 752.739 537.676 753.513 537.676 754.438ZM535.303 754.438C535.303 752.856 535.842 751.526 536.92 750.448C537.999 749.358 539.323 748.813 540.893 748.813C541.643 748.813 542.352 748.954 543.02 749.235C543.7 749.517 544.309 749.927 544.848 750.466C545.387 751.017 545.803 751.632 546.096 752.311C546.389 752.991 546.536 753.7 546.536 754.438C546.536 755.997 545.991 757.321 544.901 758.411C543.811 759.501 542.475 760.046 540.893 760.046C539.299 760.046 537.969 759.513 536.903 758.446C535.836 757.368 535.303 756.032 535.303 754.438ZM526.901 752.311L526.127 750.325L545.727 742.485L546.606 744.472L526.901 752.311ZM528.395 740.499C528.395 741.425 528.7 742.198 529.309 742.819C529.93 743.429 530.704 743.733 531.629 743.733C532.532 743.733 533.299 743.423 533.932 742.802C534.565 742.169 534.881 741.401 534.881 740.499C534.881 739.597 534.565 738.835 533.932 738.214C533.299 737.581 532.532 737.265 531.629 737.265C530.727 737.265 529.959 737.575 529.327 738.196C528.706 738.817 528.395 739.585 528.395 740.499ZM526.022 740.499C526.022 738.917 526.561 737.587 527.639 736.509C528.717 735.419 530.047 734.874 531.629 734.874C532.379 734.874 533.094 735.015 533.774 735.296C534.465 735.577 535.075 735.981 535.602 736.509C536.129 737.036 536.534 737.645 536.815 738.337C537.108 739.017 537.254 739.737 537.254 740.499C537.254 742.069 536.709 743.399 535.62 744.489C534.53 745.567 533.2 746.106 531.629 746.106C530.047 746.106 528.717 745.567 527.639 744.489C526.561 743.411 526.022 742.081 526.022 740.499Z" fill="#C6FA85"/>
</g>
<g filter="url(#filter1_d_1311_152)">
<rect x="229" width="571" height="357" rx="21.3004" fill="url(#paint2_linear_1311_152)"/>
<rect x="231.663" y="2.66255" width="565.675" height="351.675" rx="18.6379" stroke="url(#paint3_linear_1311_152)" stroke-opacity="0.2" stroke-width="5.3251"/>
<rect x="658.697" y="21.3004" width="118.951" height="73.9506" rx="10.6502" fill="#858AFA" fill-opacity="0.1"/>
<path d="M679.536 67.305H685.055V47.4769L678.446 50.6585V47.2484L685.02 44.1195H688.571V67.305H694.02V70.2757H679.536V67.305ZM707.309 43.6449C710.11 43.6449 712.225 44.7874 713.655 47.0726C715.096 49.3578 715.817 52.7386 715.817 57.2152C715.817 61.6917 715.096 65.0726 713.655 67.3578C712.225 69.6429 710.11 70.7855 707.309 70.7855C704.508 70.7855 702.393 69.6429 700.963 67.3578C699.534 65.0726 698.819 61.6917 698.819 57.2152C698.819 52.7386 699.534 49.3578 700.963 47.0726C702.393 44.7874 704.508 43.6449 707.309 43.6449ZM707.309 67.973C708.973 67.973 710.209 67.0882 711.018 65.3187C711.838 63.5492 712.249 60.848 712.249 57.2152C712.249 55.2816 712.131 53.5355 711.897 51.9769L703.53 65.0726C704.409 67.0062 705.668 67.973 707.309 67.973ZM707.309 46.4574C705.657 46.4574 704.42 47.3421 703.6 49.1117C702.792 50.8812 702.387 53.5824 702.387 57.2152C702.387 58.8675 702.499 60.4144 702.721 61.8558L710.913 48.7953C710.022 47.2367 708.821 46.4574 707.309 46.4574ZM729 43.6449C731.801 43.6449 733.917 44.7874 735.346 47.0726C736.788 49.3578 737.508 52.7386 737.508 57.2152C737.508 61.6917 736.788 65.0726 735.346 67.3578C733.917 69.6429 731.801 70.7855 729 70.7855C726.2 70.7855 724.084 69.6429 722.655 67.3578C721.225 65.0726 720.51 61.6917 720.51 57.2152C720.51 52.7386 721.225 49.3578 722.655 47.0726C724.084 44.7874 726.2 43.6449 729 43.6449ZM729 67.973C730.665 67.973 731.901 67.0882 732.709 65.3187C733.53 63.5492 733.94 60.848 733.94 57.2152C733.94 55.2816 733.823 53.5355 733.588 51.9769L725.221 65.0726C726.1 67.0062 727.36 67.973 729 67.973ZM729 46.4574C727.348 46.4574 726.112 47.3421 725.292 49.1117C724.483 50.8812 724.079 53.5824 724.079 57.2152C724.079 58.8675 724.19 60.4144 724.413 61.8558L732.604 48.7953C731.713 47.2367 730.512 46.4574 729 46.4574ZM752.098 64.6683C752.098 65.5824 752.403 66.3499 753.012 66.971C753.633 67.5921 754.401 67.9027 755.315 67.9027C756.217 67.9027 756.979 67.5921 757.6 66.971C758.233 66.3382 758.549 65.5706 758.549 64.6683C758.549 63.766 758.233 62.9984 757.6 62.3656C756.967 61.7328 756.206 61.4164 755.315 61.4164C754.401 61.4164 753.633 61.7269 753.012 62.348C752.403 62.9691 752.098 63.7425 752.098 64.6683ZM749.725 64.6683C749.725 63.0863 750.264 61.7562 751.342 60.6781C752.42 59.5882 753.745 59.0433 755.315 59.0433C756.065 59.0433 756.774 59.1839 757.442 59.4652C758.122 59.7464 758.731 60.1566 759.27 60.6956C759.809 61.2464 760.225 61.8617 760.518 62.5414C760.811 63.221 760.958 63.93 760.958 64.6683C760.958 66.2269 760.413 67.5511 759.323 68.641C758.233 69.7308 756.897 70.2757 755.315 70.2757C753.721 70.2757 752.391 69.7425 751.325 68.6761C750.258 67.598 749.725 66.2621 749.725 64.6683ZM741.323 62.5414L740.549 60.555L760.149 52.7152L761.028 54.7015L741.323 62.5414ZM742.817 50.7289C742.817 51.6546 743.122 52.4281 743.731 53.0492C744.352 53.6585 745.125 53.9632 746.051 53.9632C746.954 53.9632 747.721 53.6527 748.354 53.0316C748.987 52.3988 749.303 51.6312 749.303 50.7289C749.303 49.8265 748.987 49.0648 748.354 48.4437C747.721 47.8109 746.954 47.4945 746.051 47.4945C745.149 47.4945 744.381 47.805 743.749 48.4261C743.127 49.0472 742.817 49.8148 742.817 50.7289ZM740.444 50.7289C740.444 49.1468 740.983 47.8167 742.061 46.7386C743.139 45.6488 744.469 45.1039 746.051 45.1039C746.801 45.1039 747.516 45.2445 748.196 45.5257C748.887 45.807 749.497 46.2113 750.024 46.7386C750.551 47.266 750.956 47.8753 751.237 48.5667C751.53 49.2464 751.676 49.9671 751.676 50.7289C751.676 52.2992 751.131 53.6292 750.042 54.7191C748.952 55.7972 747.622 56.3363 746.051 56.3363C744.469 56.3363 743.139 55.7972 742.061 54.7191C740.983 53.641 740.444 52.3109 740.444 50.7289Z" fill="#858AFA"/>
<rect x="250.3" y="21.3004" width="118.951" height="73.9506" rx="10.6502" fill="#858AFA" fill-opacity="0.1"/>
<path d="M271.139 67.305H276.658V47.4769L270.049 50.6585V47.2484L276.623 44.1195H280.174V67.305H285.623V70.2757H271.139V67.305ZM298.912 43.6449C301.713 43.6449 303.828 44.7874 305.258 47.0726C306.699 49.3578 307.42 52.7386 307.42 57.2152C307.42 61.6917 306.699 65.0726 305.258 67.3578C303.828 69.6429 301.713 70.7855 298.912 70.7855C296.111 70.7855 293.996 69.6429 292.566 67.3578C291.137 65.0726 290.422 61.6917 290.422 57.2152C290.422 52.7386 291.137 49.3578 292.566 47.0726C293.996 44.7874 296.111 43.6449 298.912 43.6449ZM298.912 67.973C300.576 67.973 301.812 67.0882 302.621 65.3187C303.441 63.5492 303.852 60.848 303.852 57.2152C303.852 55.2816 303.734 53.5355 303.5 51.9769L295.133 65.0726C296.012 67.0062 297.271 67.973 298.912 67.973ZM298.912 46.4574C297.26 46.4574 296.023 47.3421 295.203 49.1117C294.395 50.8812 293.99 53.5824 293.99 57.2152C293.99 58.8675 294.102 60.4144 294.324 61.8558L302.516 48.7953C301.625 47.2367 300.424 46.4574 298.912 46.4574ZM320.604 43.6449C323.404 43.6449 325.52 44.7874 326.949 47.0726C328.391 49.3578 329.111 52.7386 329.111 57.2152C329.111 61.6917 328.391 65.0726 326.949 67.3578C325.52 69.6429 323.404 70.7855 320.604 70.7855C317.803 70.7855 315.688 69.6429 314.258 67.3578C312.828 65.0726 312.113 61.6917 312.113 57.2152C312.113 52.7386 312.828 49.3578 314.258 47.0726C315.688 44.7874 317.803 43.6449 320.604 43.6449ZM320.604 67.973C322.268 67.973 323.504 67.0882 324.312 65.3187C325.133 63.5492 325.543 60.848 325.543 57.2152C325.543 55.2816 325.426 53.5355 325.191 51.9769L316.824 65.0726C317.703 67.0062 318.963 67.973 320.604 67.973ZM320.604 46.4574C318.951 46.4574 317.715 47.3421 316.895 49.1117C316.086 50.8812 315.682 53.5824 315.682 57.2152C315.682 58.8675 315.793 60.4144 316.016 61.8558L324.207 48.7953C323.316 47.2367 322.115 46.4574 320.604 46.4574ZM343.701 64.6683C343.701 65.5824 344.006 66.3499 344.615 66.971C345.236 67.5921 346.004 67.9027 346.918 67.9027C347.82 67.9027 348.582 67.5921 349.203 66.971C349.836 66.3382 350.152 65.5706 350.152 64.6683C350.152 63.766 349.836 62.9984 349.203 62.3656C348.57 61.7328 347.809 61.4164 346.918 61.4164C346.004 61.4164 345.236 61.7269 344.615 62.348C344.006 62.9691 343.701 63.7425 343.701 64.6683ZM341.328 64.6683C341.328 63.0863 341.867 61.7562 342.945 60.6781C344.023 59.5882 345.348 59.0433 346.918 59.0433C347.668 59.0433 348.377 59.1839 349.045 59.4652C349.725 59.7464 350.334 60.1566 350.873 60.6956C351.412 61.2464 351.828 61.8617 352.121 62.5414C352.414 63.221 352.561 63.93 352.561 64.6683C352.561 66.2269 352.016 67.5511 350.926 68.641C349.836 69.7308 348.5 70.2757 346.918 70.2757C345.324 70.2757 343.994 69.7425 342.928 68.6761C341.861 67.598 341.328 66.2621 341.328 64.6683ZM332.926 62.5414L332.152 60.555L351.752 52.7152L352.631 54.7015L332.926 62.5414ZM334.42 50.7289C334.42 51.6546 334.725 52.4281 335.334 53.0492C335.955 53.6585 336.729 53.9632 337.654 53.9632C338.557 53.9632 339.324 53.6527 339.957 53.0316C340.59 52.3988 340.906 51.6312 340.906 50.7289C340.906 49.8265 340.59 49.0648 339.957 48.4437C339.324 47.8109 338.557 47.4945 337.654 47.4945C336.752 47.4945 335.984 47.805 335.352 48.4261C334.73 49.0472 334.42 49.8148 334.42 50.7289ZM332.047 50.7289C332.047 49.1468 332.586 47.8167 333.664 46.7386C334.742 45.6488 336.072 45.1039 337.654 45.1039C338.404 45.1039 339.119 45.2445 339.799 45.5257C340.49 45.807 341.1 46.2113 341.627 46.7386C342.154 47.266 342.559 47.8753 342.84 48.5667C343.133 49.2464 343.279 49.9671 343.279 50.7289C343.279 52.2992 342.734 53.6292 341.645 54.7191C340.555 55.7972 339.225 56.3363 337.654 56.3363C336.072 56.3363 334.742 55.7972 333.664 54.7191C332.586 53.641 332.047 52.3109 332.047 50.7289Z" fill="#858AFA"/>
<rect x="250.3" y="261.885" width="97.9506" height="73.9506" rx="10.6502" fill="#858AFA" fill-opacity="0.1"/>
<path d="M277.566 298.397C275.984 298.397 274.76 298.842 273.893 299.733C273.037 300.612 272.609 301.86 272.609 303.477C272.609 305.094 273.043 306.354 273.91 307.257C274.789 308.147 276.008 308.592 277.566 308.592C279.16 308.592 280.385 308.153 281.24 307.274C282.107 306.384 282.541 305.118 282.541 303.477C282.541 301.872 282.102 300.624 281.223 299.733C280.355 298.842 279.137 298.397 277.566 298.397ZM274.473 296.921C272.961 296.534 271.777 295.813 270.922 294.759C270.078 293.704 269.656 292.432 269.656 290.944C269.656 288.858 270.365 287.206 271.783 285.987C273.201 284.757 275.129 284.141 277.566 284.141C280.016 284.141 281.949 284.757 283.367 285.987C284.785 287.206 285.494 288.858 285.494 290.944C285.494 292.432 285.066 293.704 284.211 294.759C283.367 295.813 282.189 296.534 280.678 296.921C282.436 297.307 283.777 298.087 284.703 299.259C285.641 300.43 286.109 301.948 286.109 303.811C286.109 306.178 285.354 308.03 283.842 309.366C282.33 310.702 280.238 311.37 277.566 311.37C274.895 311.37 272.803 310.708 271.291 309.384C269.791 308.048 269.041 306.202 269.041 303.846C269.041 301.971 269.504 300.448 270.43 299.276C271.367 298.092 272.715 297.307 274.473 296.921ZM273.189 291.278C273.189 292.684 273.564 293.757 274.314 294.495C275.064 295.233 276.148 295.602 277.566 295.602C278.996 295.602 280.086 295.233 280.836 294.495C281.586 293.757 281.961 292.684 281.961 291.278C281.961 289.848 281.586 288.759 280.836 288.009C280.098 287.259 279.008 286.884 277.566 286.884C276.148 286.884 275.064 287.264 274.314 288.026C273.564 288.776 273.189 289.86 273.189 291.278ZM299.258 284.229C302.059 284.229 304.174 285.372 305.604 287.657C307.045 289.942 307.766 293.323 307.766 297.8C307.766 302.276 307.045 305.657 305.604 307.942C304.174 310.227 302.059 311.37 299.258 311.37C296.457 311.37 294.342 310.227 292.912 307.942C291.482 305.657 290.768 302.276 290.768 297.8C290.768 293.323 291.482 289.942 292.912 287.657C294.342 285.372 296.457 284.229 299.258 284.229ZM299.258 308.557C300.922 308.557 302.158 307.673 302.967 305.903C303.787 304.134 304.197 301.432 304.197 297.8C304.197 295.866 304.08 294.12 303.846 292.561L295.479 305.657C296.357 307.591 297.617 308.557 299.258 308.557ZM299.258 287.042C297.605 287.042 296.369 287.926 295.549 289.696C294.74 291.466 294.336 294.167 294.336 297.8C294.336 299.452 294.447 300.999 294.67 302.44L302.861 289.38C301.971 287.821 300.77 287.042 299.258 287.042ZM322.355 305.253C322.355 306.167 322.66 306.934 323.27 307.555C323.891 308.176 324.658 308.487 325.572 308.487C326.475 308.487 327.236 308.176 327.857 307.555C328.49 306.923 328.807 306.155 328.807 305.253C328.807 304.35 328.49 303.583 327.857 302.95C327.225 302.317 326.463 302.001 325.572 302.001C324.658 302.001 323.891 302.311 323.27 302.932C322.66 303.553 322.355 304.327 322.355 305.253ZM319.982 305.253C319.982 303.671 320.521 302.341 321.6 301.262C322.678 300.173 324.002 299.628 325.572 299.628C326.322 299.628 327.031 299.768 327.699 300.05C328.379 300.331 328.988 300.741 329.527 301.28C330.066 301.831 330.482 302.446 330.775 303.126C331.068 303.805 331.215 304.514 331.215 305.253C331.215 306.811 330.67 308.135 329.58 309.225C328.49 310.315 327.154 310.86 325.572 310.86C323.979 310.86 322.648 310.327 321.582 309.26C320.516 308.182 319.982 306.846 319.982 305.253ZM311.58 303.126L310.807 301.139L330.406 293.3L331.285 295.286L311.58 303.126ZM313.074 291.313C313.074 292.239 313.379 293.012 313.988 293.634C314.609 294.243 315.383 294.548 316.309 294.548C317.211 294.548 317.979 294.237 318.611 293.616C319.244 292.983 319.561 292.216 319.561 291.313C319.561 290.411 319.244 289.649 318.611 289.028C317.979 288.395 317.211 288.079 316.309 288.079C315.406 288.079 314.639 288.389 314.006 289.01C313.385 289.632 313.074 290.399 313.074 291.313ZM310.701 291.313C310.701 289.731 311.24 288.401 312.318 287.323C313.396 286.233 314.727 285.688 316.309 285.688C317.059 285.688 317.773 285.829 318.453 286.11C319.145 286.391 319.754 286.796 320.281 287.323C320.809 287.85 321.213 288.46 321.494 289.151C321.787 289.831 321.934 290.551 321.934 291.313C321.934 292.884 321.389 294.214 320.299 295.303C319.209 296.382 317.879 296.921 316.309 296.921C314.727 296.921 313.396 296.382 312.318 295.303C311.24 294.225 310.701 292.895 310.701 291.313Z" fill="#858AFA"/>
<rect x="681.311" y="261.885" width="97.9506" height="73.9506" rx="10.6502" fill="#858AFA" fill-opacity="0.1"/>
<path d="M708.577 298.397C706.995 298.397 705.77 298.842 704.903 299.733C704.047 300.612 703.62 301.86 703.62 303.477C703.62 305.094 704.053 306.354 704.92 307.257C705.799 308.147 707.018 308.592 708.577 308.592C710.17 308.592 711.395 308.153 712.25 307.274C713.118 306.384 713.551 305.118 713.551 303.477C713.551 301.872 713.112 300.624 712.233 299.733C711.366 298.842 710.147 298.397 708.577 298.397ZM705.483 296.921C703.971 296.534 702.788 295.813 701.932 294.759C701.088 293.704 700.667 292.432 700.667 290.944C700.667 288.858 701.375 287.206 702.793 285.987C704.211 284.757 706.139 284.141 708.577 284.141C711.026 284.141 712.959 284.757 714.377 285.987C715.795 287.206 716.504 288.858 716.504 290.944C716.504 292.432 716.077 293.704 715.221 294.759C714.377 295.813 713.2 296.534 711.688 296.921C713.446 297.307 714.788 298.087 715.713 299.259C716.651 300.43 717.12 301.948 717.12 303.811C717.12 306.178 716.364 308.03 714.852 309.366C713.34 310.702 711.249 311.37 708.577 311.37C705.905 311.37 703.813 310.708 702.301 309.384C700.801 308.048 700.051 306.202 700.051 303.846C700.051 301.971 700.514 300.448 701.44 299.276C702.377 298.092 703.725 297.307 705.483 296.921ZM704.2 291.278C704.2 292.684 704.575 293.757 705.325 294.495C706.075 295.233 707.159 295.602 708.577 295.602C710.006 295.602 711.096 295.233 711.846 294.495C712.596 293.757 712.971 292.684 712.971 291.278C712.971 289.848 712.596 288.759 711.846 288.009C711.108 287.259 710.018 286.884 708.577 286.884C707.159 286.884 706.075 287.264 705.325 288.026C704.575 288.776 704.2 289.86 704.2 291.278ZM730.268 284.229C733.069 284.229 735.184 285.372 736.614 287.657C738.055 289.942 738.776 293.323 738.776 297.8C738.776 302.276 738.055 305.657 736.614 307.942C735.184 310.227 733.069 311.37 730.268 311.37C727.467 311.37 725.352 310.227 723.922 307.942C722.493 305.657 721.778 302.276 721.778 297.8C721.778 293.323 722.493 289.942 723.922 287.657C725.352 285.372 727.467 284.229 730.268 284.229ZM730.268 308.557C731.932 308.557 733.168 307.673 733.977 305.903C734.797 304.134 735.208 301.432 735.208 297.8C735.208 295.866 735.09 294.12 734.856 292.561L726.489 305.657C727.368 307.591 728.627 308.557 730.268 308.557ZM730.268 287.042C728.616 287.042 727.379 287.926 726.559 289.696C725.75 291.466 725.346 294.167 725.346 297.8C725.346 299.452 725.458 300.999 725.68 302.44L733.872 289.38C732.981 287.821 731.78 287.042 730.268 287.042ZM753.366 305.253C753.366 306.167 753.67 306.934 754.28 307.555C754.901 308.176 755.668 308.487 756.583 308.487C757.485 308.487 758.247 308.176 758.868 307.555C759.5 306.923 759.817 306.155 759.817 305.253C759.817 304.35 759.5 303.583 758.868 302.95C758.235 302.317 757.473 302.001 756.583 302.001C755.668 302.001 754.901 302.311 754.28 302.932C753.67 303.553 753.366 304.327 753.366 305.253ZM750.993 305.253C750.993 303.671 751.532 302.341 752.61 301.262C753.688 300.173 755.012 299.628 756.583 299.628C757.333 299.628 758.042 299.768 758.709 300.05C759.389 300.331 759.999 300.741 760.538 301.28C761.077 301.831 761.493 302.446 761.786 303.126C762.079 303.805 762.225 304.514 762.225 305.253C762.225 306.811 761.68 308.135 760.59 309.225C759.5 310.315 758.165 310.86 756.583 310.86C754.989 310.86 753.659 310.327 752.592 309.26C751.526 308.182 750.993 306.846 750.993 305.253ZM742.59 303.126L741.817 301.139L761.417 293.3L762.295 295.286L742.59 303.126ZM744.084 291.313C744.084 292.239 744.389 293.012 744.999 293.634C745.62 294.243 746.393 294.548 747.319 294.548C748.221 294.548 748.989 294.237 749.622 293.616C750.254 292.983 750.571 292.216 750.571 291.313C750.571 290.411 750.254 289.649 749.622 289.028C748.989 288.395 748.221 288.079 747.319 288.079C746.417 288.079 745.649 288.389 745.016 289.01C744.395 289.632 744.084 290.399 744.084 291.313ZM741.711 291.313C741.711 289.731 742.25 288.401 743.329 287.323C744.407 286.233 745.737 285.688 747.319 285.688C748.069 285.688 748.784 285.829 749.463 286.11C750.155 286.391 750.764 286.796 751.292 287.323C751.819 287.85 752.223 288.46 752.504 289.151C752.797 289.831 752.944 290.551 752.944 291.313C752.944 292.884 752.399 294.214 751.309 295.303C750.219 296.382 748.889 296.921 747.319 296.921C745.737 296.921 744.407 296.382 743.329 295.303C742.25 294.225 741.711 292.895 741.711 291.313Z" fill="#858AFA"/>
</g>
<g filter="url(#filter2_d_1311_152)">
<rect x="-510" y="-149" width="277" height="865" rx="15.3913" fill="url(#paint4_linear_1311_152)"/>
<rect x="-508.076" y="-147.076" width="273.152" height="861.152" rx="13.4674" stroke="url(#paint5_linear_1311_152)" stroke-opacity="0.2" stroke-width="3.84782"/>
</g>
</g>
<defs>
<filter id="filter0_d_1311_152" x="-271.79" y="172.21" width="1121.58" height="899.581" filterUnits="userSpaceOnUse" color-interpolation-filters="sRGB">
<feFlood flood-opacity="0" result="BackgroundImageFix"/>
<feColorMatrix in="SourceAlpha" type="matrix" values="0 0 0 0 0 0 0 0 0 0 0 0 0 0 0 0 0 0 127 0" result="hardAlpha"/>
<feOffset/>
<feGaussianBlur stdDeviation="135.895"/>
<feColorMatrix type="matrix" values="0 0 0 0 0.776471 0 0 0 0 0.980392 0 0 0 0 0.521569 0 0 0 0.05 0"/>
<feBlend mode="normal" in2="BackgroundImageFix" result="effect1_dropShadow_1311_152"/>
<feBlend mode="normal" in="SourceGraphic" in2="effect1_dropShadow_1311_152" result="shape"/>
</filter>
<filter id="filter1_d_1311_152" x="-103.819" y="-332.819" width="1236.64" height="1022.64" filterUnits="userSpaceOnUse" color-interpolation-filters="sRGB">
<feFlood flood-opacity="0" result="BackgroundImageFix"/>
<feColorMatrix in="SourceAlpha" type="matrix" values="0 0 0 0 0 0 0 0 0 0 0 0 0 0 0 0 0 0 127 0" result="hardAlpha"/>
<feOffset/>
<feGaussianBlur stdDeviation="166.409"/>
<feColorMatrix type="matrix" values="0 0 0 0 0.521569 0 0 0 0 0.541176 0 0 0 0 0.980392 0 0 0 0.05 0"/>
<feBlend mode="normal" in2="BackgroundImageFix" result="effect1_dropShadow_1311_152"/>
<feBlend mode="normal" in="SourceGraphic" in2="effect1_dropShadow_1311_152" result="shape"/>
</filter>
<filter id="filter2_d_1311_152" x="-750.489" y="-389.489" width="757.977" height="1345.98" filterUnits="userSpaceOnUse" color-interpolation-filters="sRGB">
<feFlood flood-opacity="0" result="BackgroundImageFix"/>
<feColorMatrix in="SourceAlpha" type="matrix" values="0 0 0 0 0 0 0 0 0 0 0 0 0 0 0 0 0 0 127 0" result="hardAlpha"/>
<feOffset/>
<feGaussianBlur stdDeviation="120.244"/>
<feColorMatrix type="matrix" values="0 0 0 0 0.521569 0 0 0 0 0.898039 0 0 0 0 0.980392 0 0 0 0.05 0"/>
<feBlend mode="normal" in2="BackgroundImageFix" result="effect1_dropShadow_1311_152"/>
<feBlend mode="normal" in="SourceGraphic" in2="effect1_dropShadow_1311_152" result="shape"/>
</filter>
<linearGradient id="paint0_linear_1311_152" x1="289" y1="444" x2="289" y2="800" gradientUnits="userSpaceOnUse">
<stop stop-color="#C6FA85" stop-opacity="0.06"/>
<stop offset="1" stop-color="#C6FA85" stop-opacity="0"/>
</linearGradient>
<linearGradient id="paint1_linear_1311_152" x1="289" y1="444" x2="289" y2="800" gradientUnits="userSpaceOnUse">
<stop stop-color="#C6FA85"/>
<stop offset="1" stop-color="#C6FA85" stop-opacity="0"/>
</linearGradient>
<linearGradient id="paint2_linear_1311_152" x1="514.5" y1="0" x2="514.5" y2="357" gradientUnits="userSpaceOnUse">
<stop stop-color="#858AFA" stop-opacity="0"/>
<stop offset="1" stop-color="#858AFA" stop-opacity="0.06"/>
</linearGradient>
<linearGradient id="paint3_linear_1311_152" x1="514.5" y1="0" x2="514.5" y2="357" gradientUnits="userSpaceOnUse">
<stop stop-color="#858AFA" stop-opacity="0"/>
<stop offset="1" stop-color="#858AFA"/>
</linearGradient>
<linearGradient id="paint4_linear_1311_152" x1="-371.5" y1="-149" x2="-371.5" y2="716" gradientUnits="userSpaceOnUse">
<stop stop-color="#85E5FA" stop-opacity="0.06"/>
<stop offset="1" stop-color="#85E5FA" stop-opacity="0"/>
</linearGradient>
<linearGradient id="paint5_linear_1311_152" x1="-371.5" y1="-149" x2="-371.5" y2="716" gradientUnits="userSpaceOnUse">
<stop stop-color="#85E5FA"/>
<stop offset="1" stop-color="#85E5FA" stop-opacity="0.3"/>
</linearGradient>
<clipPath id="clip0_1311_152">
<rect width="800" height="800" fill="white"/>
</clipPath>
</defs>
</svg>
